# xmcd
#
# Track frame offsets: 
#        150
#        15756
#        32902
#        52427
#        64961
#        84205
#        102356
#        118498
#        132519
#        148605
#        166156
#        210043
#        222509
#        240545
#        253594
#        267495
#        285595
#        302785
#
# Disc length: 4209 seconds
#
# Revision: 0
# Processed by: cddbd v1.5.2PL0 Copyright (c) Steve Scherf et al.
# Submitted via: ExactAudioCopyFreeDBPlugin 1.0
#
DISCID=0c106f12
DTITLE=Various Artist - Beaut Ute Anthems 2016
DYEAR=2016
DGENRE=Country
TTITLE0=The Doobie Brothers - Long Train Runnin’
TTITLE1=Free - All Right Now
TTITLE2=Rascal Flatts - Life Is a Highway
TTITLE3=Adam Brand and The Outlaws - Six Days On The Road
TTITLE4=Brad Paisley - Mr. Policeman
TTITLE5=Carrie Underwood - Last Name
TTITLE6=Drew McAlister - Clyde
TTITLE7=Jasmine Rae - I Faked It
TTITLE8=Travis Collins - It Was Wheels
TTITLE9=Bachman-Turner Overdrive - You Ain’t Seen Nothing Yet
TTITLE10=Meat Loaf - Bat Out Of Hell
TTITLE11=Jayne Denham - This Is Rodeo
TTITLE12=ZZ Top - Gimme All Your Lovin’
TTITLE13=McAlister Kemp - Tats
TTITLE14=Tim Hicks - So Do I
TTITLE15=Montgomery Gentry - If It’s The Last Thing I Do
TTITLE16=C.W. McCall - Convoy
TTITLE17=The Wilson Pickers - Pulled Apart By Horses
EXTD=
EXTT0=
EXTT1=
EXTT2=
EXTT3=
EXTT4=
EXTT5=
EXTT6=
EXTT7=
EXTT8=
EXTT9=
EXTT10=
EXTT11=
EXTT12=
EXTT13=
EXTT14=
EXTT15=
EXTT16=
EXTT17=
PLAYORDER=
